<?xml version="1.0" encoding="UTF-8"?>
<svg viewBox="0 0 98.875 98.375" xmlns="http://www.w3.org/2000/svg">
 <g transform="matrix(.95172 0 0 .95172 -445.46 -600.96)">
  <path d="m519.75 633.94c-0.68134 0-1.3566 0.0351-2.0312 0.0625-26.223 1.0666-47.156 22.641-47.156 49.125s20.934 48.058 47.156 49.125c0.83837 0.0425 1.6823 0.0625 2.5312 0.0625 0.67973-7e-3 1.3584-0.0284 2.0312-0.0625 26.222-1.0666 47.156-22.641 47.156-49.125s-20.934-48.058-47.156-49.125c-0.83837-0.0425-1.6823-0.0625-2.5312-0.0625z" fill="#2c2ca0"/>
  <path d="m520.25,638.34375c-2.23275,0-4.41734.18443-6.5625.5 10.06613,13.19936 17.25225,26.30867 16.875,33.25-.35945,6.61386-.50925,6.96403-2.375,5.4375s-7.56723-12.30839-9.09375-14.34375-3.76936-5.30594-7.96875-4.59375-5.66098,5-7.1875,5-4.25.34375-4.25.34375l5.59375,3.0625c0,0 .5,3.9155.5,5.78125s-.243,5.58467-2.375,6.34375c-2.90038,1.03264-3.89803-1.09436-7.96875-4.65625s-6.26378-6.28639-8.46875-10.1875c-.73871-1.30695-2.10713-3.84575-3.5625-6.59375-2.82225,4.07955-4.96442,8.65478-6.3125,13.5625l13.09375,11.6875-13.84375-8.65625c-.57225,2.85772-.875,5.81776-.875,8.84375 0,.29249.0257.58385.0312.875l13.0625,6.40625-12.4375.3125c.4427,2.58945 1.10168,5.11383 1.96875,7.53125l11.40625.5625-9.375,4.15625c.78013,1.5744 1.64057,3.09967 2.59375,4.5625 .27601.1662.52921.32962.84375.5 4.07073,2.20498 9.08721,3.50905 15.03125,3.75 5.30871-.0974 11.74579-2.57889 16.34375-5.59375l10.40625,21.4375c1.75792-.19846 3.46599-.51023 5.15625-.90625l-.4687-7.21875 2.21875,6.78125c1.9688-.54668 3.90027-1.2323 5.75-2.03125l-.75-4.25 3.6875,2.84375c1.87239-.97707 3.66966-2.09015 5.375-3.3125l-7.375-7 9.46875,5.4375c2.57046-2.07883 4.88233-4.47227 6.9375-7.0625-5.07111-1.28568-8.58016-2.69846-11.5625-4.71875-4.92939-3.33926-8.95239-6.82526-9.4375-6.96875 18.35052,1.71216 25.65508-9.71348 30.6875-16.0625 1e-005-.0104 0-.0208 0-.0312 0-2.95051-.29903-5.83381-.84375-8.625l-7.34375,2.6875 6.75-5.375c-1.0006-3.84224-2.51482-7.47586-4.4375-10.84375l-10.125,8.40625 8.3125-11.375c-1.93221-2.84449-4.2003-5.45618-6.71875-7.78125l-6.5,12.46875 2.625-15.65625c-3.32485-2.44331-7.00229-4.44831-10.9375-5.90625l-.4375,15.87495-6.03125-17.71875c-2.9358-.60553-5.97875-.9375-9.09375-.9375zm-42.0625,19.28125c-.17664.28136-.36228.55676-.53125.84375-.23384.39718-.43705.8125-.65625,1.21875 .37861-.69695.7767-1.38641 1.1875-2.0625zm-1.1875,2.0625c-.10863.20132-.23608.39171-.34375.59375-.29891.56267-.59775,1.11199-.875,1.6875-.0244.0505-.0382.10562-.0625.15625-.12463.26103-.25489.51768-.375.78125-.1694.37026-.33971.74979-.5,1.125-.0129.0303-.0184.0634-.0312.0937-.3085.72955-.60149,1.47156-.875,2.21875-.19518.53143-.38564,1.05367-.5625,1.59375l.06245.06255c.93625-2.89976 2.1303-5.67604 3.5625-8.3125zm34.90625,1.875c.93675,0 1.6875.782 1.6875,1.71875s-.75075,1.6875-1.6875,1.6875-1.71875-.75075-1.71875-1.6875 .782-1.71875 1.71875-1.71875zm-39.59375,10.1875c-.0446.18658-.0824.37507-.125.5625-.0853.37702-.1735.74472-.25,1.125-.13785.67734-.26478,1.37524-.375,2.0625-.0114.0729-.0202.14579-.0312.21875-.0711.45649-.12918.91445-.1875,1.375-.0424.34447-.0898.68459-.125,1.03125-.004.0416.004.0834 0,.125-.0325.32873-.0679.66938-.0937,1-.0327.40693-.0718.80914-.0937,1.21875v.0937c-.001.0207.001.0418 0,.0625l.0625,1.21875c.0884-3.44821.54951-6.79473 1.3125-10.03125l-.0937-.0625zm-.71875,19.09375c.0481.30306.10257.60508.15625.90625 .0715.406.13816.81666.21875,1.21875 .0154.0751.0468.14383.0625.21875 .10249.49977.19515,1.00615.3125,1.5 .0768.31628.16702.62367.25.9375 .16921.63994.33697,1.27692.53125,1.90625 .0126.0408.0186.0843.0312.125 .0392.12614.0847.24924.125.375h.0937c-.74011-2.32939-1.33058-4.72206-1.71875-7.1875h-.0625z" fill="#fff"/>
 </g>
</svg>
